#N canvas 78 43 1301 1009 10;
#X declare -lib zexy;
#X obj 463 339 sig~;
#X obj 463 319 mtof;
#X obj 463 277 * 120;
#X obj 463 299 + 30;
#X msg 463 523 \$1 10;
#X obj 463 420 *~ 1.5;
#X obj 464 194 audioToControl;
#X obj 463 257 audioToControl;
#X obj 464 504 audioToControl;
#X text 33 51 ===============================;
#X text 475 32 ............................;
#X text 475 42 . ____ ._____ _ .......___ .;
#X text 475 52 .| __ )| ____| |....../ _ |.;
#X text 475 72 .| |_) | |___| |___ / ___ |.;
#X text 475 92 ............................;
#X text 475 62 .| __ || __|.| |...../ _| |.;
#X text 57 123 a Eurorack module based on Bela.;
#X text 58 149 I/O:;
#X text 475 82 .|____/|_____|_____/_/..._|.io;
#X obj 464 153 adc~ 3;
#X obj 463 237 adc~ 5;
#X text 406 241 rolloff;
#X obj 464 485 lop~ 200;
#X obj 464 173 lop~ 500;
#X obj 463 401 lop~ 200;
#X text 13 309 Credits:;
#X text 13 329 Additional Pd patching: Franky Redente;
#X text 13 349 Featuring components from the following libraries:;
#X text 13 359 RjLib \, Heavylib;
#X obj 467 741 led-audio-meter, f 21;
#X text 3 433 Edited by Robert Jack to make PEPPER compatible;
#X text 57 113 This patch is designed to run on Pepper \,;
#X text 13 339 Original Pd patching: Jon Pigrem;
#X text 37 75 Dual Tape delay simulator with variable-speed tape and saturation;
#X text 13 319 Original Pepper patching: Robert Thomas;
#X text 58 169 CV in 0-1: tape speed;
#X text 59 179 CV in 2-3: high-frequency rolloff;
#X text 58 189 CV in 4-5: feedback;
#X text 59 199 CV in 6-7: wet/dry;
#X text 58 239 Audio out 1-2: mono audio output;
#X text 58 159 Audio in 1-2: audio inp;
#X obj 463 382 adc~ 7;
#X obj 464 462 adc~ 9;
#X obj 625 170 lop~ 500;
#X text 29 42 Dual Tape Delay - by Robert Thomas - mod by Daniel Villegas;
#X obj 625 151 adc~ 4;
#X obj 467 695 receive~ audioL;
#X obj 566 695 receive~ audioR;
#N canvas 853 203 784 594 buttons 0;
#X obj 183 89 sel 1;
#X obj 73 68 delay 3;
#X obj 44 69 f;
#X obj 213 68 delay 3;
#X obj 184 69 f;
#X obj 45 36 r bela_digitalIn26;
#X obj 185 36 r bela_digitalIn25;
#X obj 363 68 delay 3;
#X obj 334 69 f;
#X obj 503 68 delay 3;
#X obj 474 69 f;
#X obj 335 36 r bela_digitalIn24;
#X obj 475 36 r bela_digitalIn23;
#X obj 50 167 s speeds;
#X obj 43 146 cyclone/counter 0 7;
#X obj 44 90 sel 1;
#X floatatom 43 187 5 0 0 0 - - - 0;
#X msg 73 111 inc;
#X msg 44 112 dec;
#X connect 0 0 17 0;
#X connect 1 0 2 0;
#X connect 2 0 15 0;
#X connect 3 0 4 0;
#X connect 4 0 0 0;
#X connect 5 0 1 0;
#X connect 5 0 2 1;
#X connect 6 0 3 0;
#X connect 6 0 4 1;
#X connect 7 0 8 0;
#X connect 9 0 10 0;
#X connect 11 0 7 0;
#X connect 11 0 8 1;
#X connect 12 0 9 0;
#X connect 12 0 10 1;
#X connect 14 0 16 0;
#X connect 14 0 13 0;
#X connect 15 0 18 0;
#X connect 17 0 14 0;
#X connect 18 0 14 0;
#X restore 468 633 pd buttons;
#X obj 467 613 declare -lib zexy;
#X obj 464 214 s tapeSpeedL;
#X obj 463 542 s xfade;
#X text 415 461 wet/dry;
#X obj 463 360 s~ roloff;
#X text 403 382 Feedback;
#N canvas 185 573 667 275 regionsR 0;
#X obj 21 100 line~;
#X obj 21 59 + 10;
#X obj 92 103 line~;
#X obj 92 62 + 10;
#X obj 165 103 line~;
#X obj 165 62 + 10;
#X obj 238 103 line~;
#X obj 238 62 + 10;
#X obj 54 164 r speeds;
#X obj 312 102 line~;
#X obj 312 61 + 10;
#X obj 386 105 line~;
#X obj 386 64 + 10;
#X obj 459 105 line~;
#X obj 459 64 + 10;
#X obj 532 105 line~;
#X obj 532 64 + 10;
#X obj 21 40 * 20;
#X obj 92 43 * 80;
#X obj 165 43 * 326;
#X obj 238 43 * 653;
#X obj 312 42 * 1306;
#X obj 386 45 * 2612;
#X obj 459 45 * 5220;
#X obj 532 45 * 42000;
#X obj 54 191 mux~ . . . . . . . .;
#X obj 20 80 pack f 5;
#X obj 92 83 pack f 5;
#X obj 165 83 pack f 5;
#X obj 238 83 pack f 5;
#X obj 312 82 pack f 5;
#X obj 386 85 pack f 5;
#X obj 459 85 pack f 5;
#X obj 532 85 pack f 5;
#X obj 20 15 r tapeSpeedR;
#X obj 19 122 vd~ \$1-delR;
#X obj 92 122 vd~ \$1-delR;
#X obj 165 122 vd~ \$1-delR;
#X obj 239 123 vd~ \$1-delR;
#X obj 312 122 vd~ \$1-delR;
#X obj 386 123 vd~ \$1-delR;
#X obj 459 124 vd~ \$1-delR;
#X obj 533 124 vd~ \$1-delR;
#X obj 54 213 throw~ delaysR;
#X connect 0 0 35 0;
#X connect 1 0 26 0;
#X connect 2 0 36 0;
#X connect 3 0 27 0;
#X connect 4 0 37 0;
#X connect 5 0 28 0;
#X connect 6 0 38 0;
#X connect 7 0 29 0;
#X connect 8 0 25 0;
#X connect 9 0 39 0;
#X connect 10 0 30 0;
#X connect 11 0 40 0;
#X connect 12 0 31 0;
#X connect 13 0 41 0;
#X connect 14 0 32 0;
#X connect 15 0 42 0;
#X connect 16 0 33 0;
#X connect 17 0 1 0;
#X connect 18 0 3 0;
#X connect 19 0 5 0;
#X connect 20 0 7 0;
#X connect 21 0 10 0;
#X connect 22 0 12 0;
#X connect 23 0 14 0;
#X connect 24 0 16 0;
#X connect 25 0 43 0;
#X connect 26 0 0 0;
#X connect 27 0 2 0;
#X connect 28 0 4 0;
#X connect 29 0 6 0;
#X connect 30 0 9 0;
#X connect 31 0 11 0;
#X connect 32 0 13 0;
#X connect 33 0 15 0;
#X connect 34 0 17 0;
#X connect 34 0 18 0;
#X connect 34 0 19 0;
#X connect 34 0 20 0;
#X connect 34 0 21 0;
#X connect 34 0 22 0;
#X connect 34 0 23 0;
#X connect 34 0 24 0;
#X connect 35 0 25 0;
#X connect 36 0 25 1;
#X connect 37 0 25 2;
#X connect 38 0 25 3;
#X connect 39 0 25 4;
#X connect 40 0 25 5;
#X connect 41 0 25 6;
#X connect 42 0 25 7;
#X restore 466 673 pd regionsR;
#N canvas 315 526 667 275 regionsL 0;
#X obj 21 100 line~;
#X obj 21 59 + 10;
#X obj 20 6 r tapeSpeedL;
#X obj 92 103 line~;
#X obj 92 62 + 10;
#X obj 165 103 line~;
#X obj 165 62 + 10;
#X obj 238 103 line~;
#X obj 238 62 + 10;
#X obj 54 164 r speeds;
#X obj 54 213 throw~ delaysL;
#X obj 312 102 line~;
#X obj 312 61 + 10;
#X obj 386 105 line~;
#X obj 386 64 + 10;
#X obj 459 105 line~;
#X obj 459 64 + 10;
#X obj 532 105 line~;
#X obj 532 64 + 10;
#X obj 21 40 * 20;
#X obj 92 43 * 80;
#X obj 165 43 * 326;
#X obj 238 43 * 653;
#X obj 312 42 * 1306;
#X obj 386 45 * 2612;
#X obj 459 45 * 5220;
#X obj 532 45 * 42000;
#X obj 54 191 mux~ . . . . . . . .;
#X obj 20 80 pack f 5;
#X obj 92 83 pack f 5;
#X obj 165 83 pack f 5;
#X obj 238 83 pack f 5;
#X obj 312 82 pack f 5;
#X obj 386 85 pack f 5;
#X obj 459 85 pack f 5;
#X obj 532 85 pack f 5;
#X obj 19 122 vd~ \$1-delL;
#X obj 93 122 vd~ \$1-delL;
#X obj 165 122 vd~ \$1-delL;
#X obj 242 122 vd~ \$1-delL;
#X obj 312 122 vd~ \$1-delL;
#X obj 459 122 vd~ \$1-delL;
#X obj 533 122 vd~ \$1-delL;
#X obj 386 122 vd~ \$1-delL;
#X connect 0 0 36 0;
#X connect 1 0 28 0;
#X connect 2 0 19 0;
#X connect 2 0 20 0;
#X connect 2 0 21 0;
#X connect 2 0 22 0;
#X connect 2 0 23 0;
#X connect 2 0 24 0;
#X connect 2 0 25 0;
#X connect 2 0 26 0;
#X connect 3 0 37 0;
#X connect 4 0 29 0;
#X connect 5 0 38 0;
#X connect 6 0 30 0;
#X connect 7 0 39 0;
#X connect 8 0 31 0;
#X connect 9 0 27 0;
#X connect 11 0 40 0;
#X connect 12 0 32 0;
#X connect 13 0 43 0;
#X connect 14 0 33 0;
#X connect 15 0 41 0;
#X connect 16 0 34 0;
#X connect 17 0 42 0;
#X connect 18 0 35 0;
#X connect 19 0 1 0;
#X connect 20 0 4 0;
#X connect 21 0 6 0;
#X connect 22 0 8 0;
#X connect 23 0 12 0;
#X connect 24 0 14 0;
#X connect 25 0 16 0;
#X connect 26 0 18 0;
#X connect 27 0 10 0;
#X connect 28 0 0 0;
#X connect 29 0 3 0;
#X connect 30 0 5 0;
#X connect 31 0 7 0;
#X connect 32 0 11 0;
#X connect 33 0 13 0;
#X connect 34 0 15 0;
#X connect 35 0 17 0;
#X connect 36 0 27 0;
#X connect 37 0 27 1;
#X connect 38 0 27 2;
#X connect 39 0 27 3;
#X connect 40 0 27 4;
#X connect 41 0 27 6;
#X connect 42 0 27 7;
#X connect 43 0 27 5;
#X restore 467 653 pd regionsL;
#N canvas 167 146 407 255 delayL 0;
#X obj 233 130 hv.tanh;
#X obj 66 121 hip~ 40;
#X obj 66 145 lop~ 10000;
#X obj 233 65 vcf~ 1.5;
#X obj 233 85 hip~ 40;
#X obj 233 106 lop~ 6000;
#X obj 233 43 *~;
#X obj 47 176 c_xfade;
#X text 72 46 Reading from Delay buffer;
#X text 102 180 wet/dry;
#X obj 47 40 +~;
#X obj 47 15 adc~ 1;
#X obj 24 205 dac~ 1;
#X obj 69 205 send~ audioL;
#X obj 67 95 catch~ delaysL;
#X obj 57 64 delwrite~ \$1-delL 42000;
#X obj 104 161 r xfade;
#X text 279 20 Feedback amount;
#X obj 259 43 r~ roloff;
#X obj 248 23 r~ fb;
#X connect 0 0 15 0;
#X connect 1 0 2 0;
#X connect 2 0 7 1;
#X connect 3 0 4 0;
#X connect 4 0 5 0;
#X connect 5 0 0 0;
#X connect 6 0 3 0;
#X connect 7 0 12 0;
#X connect 7 0 13 0;
#X connect 10 0 7 0;
#X connect 10 0 15 0;
#X connect 11 0 10 0;
#X connect 14 0 1 0;
#X connect 14 0 6 0;
#X connect 16 0 7 2;
#X connect 18 0 3 1;
#X connect 19 0 6 1;
#X restore 541 653 pd delayL;
#N canvas 167 146 407 255 delayR 0;
#X obj 233 130 hv.tanh;
#X obj 66 121 hip~ 40;
#X obj 66 145 lop~ 10000;
#X obj 233 65 vcf~ 1.5;
#X obj 233 85 hip~ 40;
#X obj 233 106 lop~ 6000;
#X obj 233 43 *~;
#X obj 47 176 c_xfade;
#X text 72 46 Reading from Delay buffer;
#X text 102 180 wet/dry;
#X obj 47 40 +~;
#X obj 104 161 r xfade;
#X text 279 20 Feedback amount;
#X obj 259 43 r~ roloff;
#X obj 47 15 adc~ 2;
#X obj 57 64 delwrite~ \$1-delR 42000;
#X obj 66 99 catch~ delaysR;
#X obj 69 205 send~ audioR;
#X obj 248 23 r~ fb;
#X connect 0 0 15 0;
#X connect 1 0 2 0;
#X connect 2 0 7 1;
#X connect 3 0 4 0;
#X connect 4 0 5 0;
#X connect 5 0 0 0;
#X connect 6 0 3 0;
#X connect 7 0 17 0;
#X connect 10 0 7 0;
#X connect 10 0 15 0;
#X connect 11 0 7 2;
#X connect 13 0 3 1;
#X connect 14 0 10 0;
#X connect 16 0 1 0;
#X connect 16 0 6 0;
#X connect 18 0 6 1;
#X restore 541 674 pd delayR;
#X obj 485 720 dac~ 1 2, f 14;
#X text 388 153 TapeSpeedL;
#X text 551 148 tapeSpeedR;
#X obj 464 441 s~ fb;
#X text 559 239 LFO Speed;
#X obj 622 239 adc~ 6;
#X obj 622 262 lop~ 500;
#N canvas 972 201 948 730 LFO 1;
#X obj 233 84 osc~;
#X obj 281 165 osc~;
#X obj 233 499 dac~ 3 4 5 6 7 8 9 10, f 57;
#X obj 375 45 r~ lfoSpeed;
#X obj 281 184 attenoff~;
#X obj 233 105 attenoff~;
#X obj 241 126 s~ lfoGraph;
#X obj 330 226 osc~;
#X obj 330 245 attenoff~;
#X obj 379 285 osc~;
#X obj 379 304 attenoff~;
#X obj 425 195 osc~;
#X obj 474 259 osc~;
#X obj 474 278 attenoff~;
#X obj 425 216 attenoff~;
#X obj 523 320 osc~;
#X obj 523 339 attenoff~;
#X obj 572 379 osc~;
#X obj 572 398 attenoff~;
#X floatatom 87 167 5 0 0 0 - - - 0;
#X floatatom 97 225 5 0 0 0 - - - 0;
#X obj 97 204 * 300;
#X obj 284 147 *~ 20;
#X obj 330 207 *~ 30;
#X obj 379 266 *~ 40;
#X obj 425 174 *~ 50;
#X obj 475 240 *~ 60;
#X obj 523 301 *~ 70;
#X obj 572 360 *~ 80;
#X connect 0 0 5 0;
#X connect 1 0 4 0;
#X connect 3 0 0 0;
#X connect 3 0 22 0;
#X connect 3 0 23 0;
#X connect 3 0 24 0;
#X connect 3 0 25 0;
#X connect 3 0 26 0;
#X connect 3 0 27 0;
#X connect 3 0 28 0;
#X connect 4 0 2 1;
#X connect 5 0 6 0;
#X connect 5 0 2 0;
#X connect 7 0 8 0;
#X connect 8 0 2 2;
#X connect 9 0 10 0;
#X connect 10 0 2 3;
#X connect 11 0 14 0;
#X connect 12 0 13 0;
#X connect 13 0 2 5;
#X connect 14 0 2 4;
#X connect 15 0 16 0;
#X connect 16 0 2 6;
#X connect 17 0 18 0;
#X connect 18 0 2 7;
#X connect 19 0 21 0;
#X connect 21 0 20 0;
#X connect 22 0 1 0;
#X connect 23 0 7 0;
#X connect 24 0 9 0;
#X connect 25 0 11 0;
#X connect 26 0 12 0;
#X connect 27 0 15 0;
#X connect 28 0 17 0;
#X restore 541 634 pd LFO;
#X obj 625 192 s~ tapeSpeedR;
#X obj 622 284 s~ lfoSpeed;
#X obj 619 406 lop~ 500;
#X obj 619 383 adc~ 8;
#X obj 619 483 lop~ 500;
#X obj 619 460 adc~ 10;
#X obj 619 428 s~ lfoAtt;
#X obj 619 505 s~ lfoOffset;
#X obj 590 720 r~ lfoGraph;
#X connect 0 0 53 0;
#X connect 1 0 0 0;
#X connect 2 0 3 0;
#X connect 3 0 1 0;
#X connect 4 0 51 0;
#X connect 5 0 62 0;
#X connect 6 0 50 0;
#X connect 7 0 2 0;
#X connect 8 0 4 0;
#X connect 19 0 23 0;
#X connect 20 0 7 0;
#X connect 22 0 8 0;
#X connect 23 0 6 0;
#X connect 24 0 5 0;
#X connect 41 0 24 0;
#X connect 42 0 22 0;
#X connect 43 0 67 0;
#X connect 45 0 43 0;
#X connect 46 0 29 0;
#X connect 46 0 59 0;
#X connect 47 0 29 1;
#X connect 47 0 59 1;
#X connect 64 0 65 0;
#X connect 65 0 68 0;
#X connect 69 0 73 0;
#X connect 70 0 69 0;
#X connect 71 0 74 0;
#X connect 72 0 71 0;
#X connect 75 0 29 2;
