#N canvas 399 378 450 300 12;
#X obj 194 27 inlet~;
#X obj 194 70 *~;
#X obj 209 48 r~ lfoAtt;
#X obj 222 71 r~ lfoOffset;
#X obj 194 101 +~;
#X obj 194 125 outlet~;
#X connect 0 0 1 0;
#X connect 1 0 4 0;
#X connect 2 0 1 1;
#X connect 3 0 4 1;
#X connect 4 0 5 0;
