#N canvas 570 294 1296 708 10;
#X obj 158 89 phasor~ 2000;
#X obj 182 134 expr~ $v1 < $v2;
#X obj 271 93 abs~;
#X obj 271 114 lop~ 20;
#X obj 246 12 inlet~;
#X obj 501 81 s bela_setDigital;
#X obj 501 25 loadbang;
#X obj 501 162 s bela_setDigital;
#X obj 501 115 loadbang;
#X msg 501 137 in 25 \, in 26;
#X obj 501 242 s bela_setDigital;
#X obj 501 195 loadbang;
#X msg 501 217 in 22 \, in 20 \, in 24 \, in 23;
#X text 630 136 Initialise the buttons;
#X text 700 216 Initialise the digital inputs;
#X text 998 47 Initialise the LED pins at signal rate;
#X obj 158 112 expr~ $v1 < $v2;
#X obj 245 32 abs~;
#X obj 245 53 lop~ 20;
#X obj 271 73 inlet~;
#X obj 14 24 r speeds;
#X obj 11 209 sel 0 1 2 3 4 5 6 7, f 69;
#X obj 79 276 tgl 16 0 empty empty empty 0 -8 0 10 #fcfcfc #000000 #000000 0 1;
#X obj 148 276 tgl 16 0 empty empty empty 0 -8 0 10 #fcfcfc #000000 #000000 0 1;
#X obj 196 277 tgl 16 0 empty empty empty 0 -8 0 10 #fcfcfc #000000 #000000 0 1;
#X obj 268 271 tgl 16 0 empty empty empty 0 -8 0 10 #fcfcfc #000000 #000000 0 1;
#X obj 318 272 tgl 16 0 empty empty empty 0 -8 0 10 #fcfcfc #000000 #000000 0 1;
#X obj 388 273 tgl 16 0 empty empty empty 0 -8 0 10 #fcfcfc #000000 #000000 0 1;
#X obj 29 274 tgl 16 0 empty empty empty 0 -8 0 10 #fcfcfc #000000 #000000 0 1;
#X obj 28 316 s bela_digitalOut17;
#X obj 78 336 s bela_digitalOut18;
#X obj 148 316 s bela_digitalOut21;
#X obj 198 336 s bela_digitalOut13;
#X obj 268 316 s bela_digitalOut14;
#X obj 318 336 s bela_digitalOut11;
#X obj 388 316 s bela_digitalOut12;
#X obj 14 67 t f b;
#X obj 29 245 r b17;
#X obj 80 245 r b18;
#X obj 145 247 r b21;
#X obj 195 246 r b13;
#X obj 260 242 r b14;
#X obj 316 244 r b11;
#X obj 385 244 r b12;
#X msg 42 99 \; b17 0 \; b18 0 \; b21 0 \; b13 0 \; b14 0 \; b11 0 \; b12 0 \; b15 0 \;;
#X obj 173 177 dac~ 15 16 19;
#X obj 307 132 phasor~ 2000;
#X obj 395 81 inlet~;
#X obj 306 154 expr~ $v1 < $v2;
#X obj 394 101 abs~;
#X obj 394 122 lop~ 20;
#X msg 504 50 out 17 \, out 18 \, out 21 \, out 13 \, out 14 \, out 11 \, out 12 \, out 15 ~ \, out 16 ~ \, out 19 ~, f 79;
#X connect 0 0 1 0;
#X connect 0 0 16 0;
#X connect 1 0 45 1;
#X connect 2 0 3 0;
#X connect 3 0 1 1;
#X connect 4 0 17 0;
#X connect 6 0 51 0;
#X connect 8 0 9 0;
#X connect 9 0 7 0;
#X connect 11 0 12 0;
#X connect 12 0 10 0;
#X connect 16 0 45 0;
#X connect 17 0 18 0;
#X connect 18 0 16 1;
#X connect 19 0 2 0;
#X connect 20 0 36 0;
#X connect 21 1 28 0;
#X connect 21 2 22 0;
#X connect 21 3 23 0;
#X connect 21 4 24 0;
#X connect 21 5 25 0;
#X connect 21 6 26 0;
#X connect 21 7 27 0;
#X connect 22 0 30 0;
#X connect 23 0 31 0;
#X connect 24 0 32 0;
#X connect 25 0 33 0;
#X connect 26 0 34 0;
#X connect 27 0 35 0;
#X connect 28 0 29 0;
#X connect 36 0 21 0;
#X connect 36 1 44 0;
#X connect 37 0 28 0;
#X connect 38 0 22 0;
#X connect 39 0 23 0;
#X connect 40 0 24 0;
#X connect 41 0 25 0;
#X connect 42 0 26 0;
#X connect 43 0 27 0;
#X connect 46 0 48 0;
#X connect 47 0 49 0;
#X connect 48 0 45 2;
#X connect 49 0 50 0;
#X connect 50 0 48 1;
#X connect 51 0 5 0;
